#!OML:ASF F:\VICON\USERDATA\INSTALL\rory3\rory3.ASF
:FULLY-SPECIFIED
:DEGREES
751
root 5.30746 15.4433 -10.6338 32.6584 11.0215 -1.7579
lowerback -9.3684 -1.61036 -4.93475
upperback -15.0506 -2.08129 -1.60262
thorax -10.9014 -0.562304 0.994964
lowerneck -7.16157 1.85542 -2.10228
upperneck 16.1269 2.15608 4.25079
head 5.97927 1.25253 1.84776
rclavicle 1.19271e-014 3.65764e-014
rhumerus 172.932 6.32419 -179.612
rradius 12.2317
rwrist 100.171
rhand -14.4595 8.01536
rfingers 7.12502
rthumb 11.6861 -21.6387
lclavicle 1.19271e-014 3.65764e-014
lhumerus 25.6113 33.5975 34.5122
lradius 16.303
lwrist -41.6308
lhand 9.25795 32.3724
lfingers 7.12502
lthumb 34.4222 59.0615
rfemur -16.6959 23.676 4.98901
rtibia 33.2174
rfoot -77.5514 4.87954
rtoes 59.3042
lfemur -65.7349 6.82487 -34.7572
ltibia 60.4025
lfoot -32.178 10.0922
ltoes -14.9872
752
root 5.28786 15.4225 -10.6253 33.1064 9.89583 -1.4989
lowerback -9.55937 -1.68044 -5.4546
upperback -15.1502 -2.17964 -1.82875
thorax -10.9112 -0.572932 1.03244
lowerneck -7.46707 2.15528 -1.64739
upperneck 16.1118 2.50433 4.25807
head 6.02248 1.45113 1.80346
rclavicle -1.07841e-014 4.29375e-014
rhumerus 173.19 7.16159 -179.199
rradius 12.2318
rwrist 103.369
rhand -14.7897 7.93883
rfingers 7.12502
rthumb 11.3676 -21.7331
lclavicle -1.07841e-014 4.29375e-014
lhumerus 23.959 32.7103 31.6047
lradius 16.6845
lwrist -41.7513
lhand 9.12211 32.5093
lfingers 7.12502
lthumb 34.2932 59.2275
rfemur -16.4879 24.2613 5.52107
rtibia 33.2252
rfoot -78.1638 5.86798
rtoes 59.2203
lfemur -66.2272 7.20056 -35.3236
ltibia 60.5083
lfoot -32.3013 10.462
ltoes -16.776
753
root 5.27251 15.4072 -10.6165 33.5697 8.54965 -1.30798
lowerback -9.98412 -1.61121 -6.03085
upperback -15.2398 -2.06838 -2.11439
thorax -10.7901 -0.479561 1.03148
lowerneck -7.30506 2.39947 -1.13869
upperneck 15.7883 2.7741 4.25667
head 5.8928 1.60854 1.72986
rclavicle 1.18774e-014 -7.95139e-015
rhumerus 173.605 8.47365 -178.665
rradius 12.195
rwrist 107.116
rhand -15.2717 7.66318
rfingers 7.12502
rthumb 10.9027 -22.0338
lclavicle 1.18774e-014 -7.95139e-015
lhumerus 22.37 31.0691 28.713
lradius 17.1404
lwrist -41.0897
lhand 8.53677 33.2038
lfingers 7.12502
lthumb 33.7372 60.0456
rfemur -16.4749 24.4115 5.85442
rtibia 33.2313
rfoot -78.2352 5.59478
rtoes 59.0612
lfemur -66.7877 7.7719 -35.9832
ltibia 60.624
lfoot -32.5436 10.9028
ltoes -18.4885
754
root 5.2582 15.3903 -10.6077 33.8376 7.38109 -1.19166
lowerback -10.1849 -1.52851 -6.38942
upperback -15.4125 -1.96752 -2.41342
thorax -10.9033 -0.408665 0.900017
lowerneck -6.80711 2.60209 -0.844675
upperneck 15.4787 2.99425 4.42043
head 5.70582 1.73823 1.73389
rclavicle 1.14301e-015 -1.74931e-014
rhumerus 173.959 8.99399 -178.123
rradius 12.314
rwrist 110.508
rhand -15.6189 7.40573
rfingers 7.12502
rthumb 10.5678 -22.3086
lclavicle 1.14301e-015 -1.74931e-014
lhumerus 21.0813 30.0876 26.356
lradius 17.4615
lwrist -41.0882
lhand 8.29925 33.0516
lfingers 7.12502
lthumb 33.5115 59.9424
rfemur -16.1782 24.1673 6.46252
rtibia 33.2295
rfoot -78.0365 5.36987
rtoes 58.9584
lfemur -67.1812 8.27895 -36.4435
ltibia 60.7867
lfoot -32.9109 10.7656
ltoes -18.2941
755
root 5.24945 15.3728 -10.6012 33.9954 6.28001 -1.146
lowerback -10.2004 -1.50424 -6.56698
upperback -15.5868 -1.96612 -2.63298
thorax -11.1177 -0.400447 0.757031
lowerneck -6.79763 2.91602 -0.688387
upperneck 15.6212 3.34863 4.74757
head 5.73563 1.94456 1.83658
rclavicle 8.05078e-015 9.54166e-015
rhumerus 173.934 8.94062 -177.77
rradius 12.5467
rwrist 113.375
rhand -15.795 7.16097
rfingers 7.12502
rthumb 10.398 -22.5619
lclavicle 8.05078e-015 9.54166e-015
lhumerus 19.6559 29.2416 23.9287
lradius 17.724
lwrist -41.1742
lhand 8.13996 32.5592
lfingers 7.12502
lthumb 33.3601 59.4828
rfemur -15.7411 23.571 7.14654
rtibia 33.1939
rfoot -77.6144 5.19095
rtoes 58.9652
lfemur -67.4296 8.73285 -36.746
ltibia 61.025
lfoot -33.5899 10.0742
ltoes -16.7977
756
root 5.24338 15.3565 -10.5994 34.1881 4.98099 -1.03146
lowerback -10.3305 -1.48699 -6.84337
upperback -15.6178 -1.95319 -2.84832
thorax -11.0923 -0.384883 0.672667
lowerneck -7.28636 3.22584 -0.76508
upperneck 15.8628 3.6998 5.20682
head 5.87408 2.15131 2.03194
rclavicle -2.45499e-014 3.33958e-014
rhumerus 173.732 9.38842 -177.563
rradius 12.6006
rwrist 116.077
rhand -16.0588 6.88943
rfingers 7.12502
rthumb 10.1434 -22.8461
lclavicle -2.45499e-014 3.33958e-014
lhumerus 18.2379 28.3896 21.5075
lradius 18.0695
lwrist -40.7179
lhand 7.80851 32.727
lfingers 7.12502
lthumb 33.0449 59.7177
rfemur -15.509 22.6966 7.47351
rtibia 33.1676
rfoot -76.9275 4.30947
rtoes 58.9019
lfemur -67.7284 9.35494 -37.3359
ltibia 61.2631
lfoot -34.2699 9.63042
ltoes -15.9335
757
root 5.23736 15.3413 -10.5945 34.3549 3.58606 -0.96878
lowerback -10.5901 -1.4225 -7.14619
upperback -15.5869 -1.85802 -3.08016
thorax -10.9232 -0.331422 0.584791
lowerneck -7.3683 3.44435 -0.750452
upperneck 15.6424 3.95485 5.50382
head 5.80451 2.29637 2.13719
rclavicle -2.04748e-014 -1.11319e-014
rhumerus 173.586 9.98127 -177.337
rradius 12.6474
rwrist 118.745
rhand -16.2588 6.81897
rfingers 7.12502
rthumb 9.95049 -22.9258
lclavicle -2.04748e-014 -1.11319e-014
lhumerus 17.249 28.2104 19.6406
lradius 18.2449
lwrist -40.5419
lhand 7.10767 33.3126
lfingers 7.12502
lthumb 32.3782 60.442
rfemur -15.3562 22.0193 7.75104
rtibia 33.2166
rfoot -76.1159 3.142
rtoes 58.8477
lfemur -68.1561 10.1516 -38.0472
ltibia 61.4553
lfoot -34.4399 10.4818
ltoes -18.1043
758
root 5.22739 15.3238 -10.5901 34.4938 2.29362 -1.00928
lowerback -10.7476 -1.33071 -7.36809
upperback -15.6963 -1.74728 -3.30859
thorax -10.9858 -0.270016 0.455227
lowerneck -7.18528 3.64481 -0.639606
upperneck 15.5426 4.17173 5.80514
head 5.72999 2.42723 2.22132
rclavicle -6.55989e-015 7.95139e-015
rhumerus 173.523 10.0017 -177.081
rradius 12.7419
rwrist 121.045
rhand -15.915 6.81382
rfingers 7.12502
rthumb 10.2821 -22.9148
lclavicle -6.55989e-015 7.95139e-015
lhumerus 16.2916 27.7036 17.858
lradius 18.4481
lwrist -40.3886
lhand 6.62959 33.7121
lfingers 7.12502
lthumb 31.923 60.9335
rfemur -15.1963 21.6002 8.20273
rtibia 33.3286
rfoot -75.4176 1.74231
rtoes 58.799
lfemur -68.5761 10.912 -38.5723
ltibia 61.6415
lfoot -34.4745 11.2324
ltoes -19.9318
759
root 5.21638 15.3068 -10.5931 34.7673 1.02549 -0.73552
lowerback -10.7984 -1.37485 -7.85255
upperback -15.9349 -1.83567 -3.56911
thorax -11.2623 -0.273808 0.428509
lowerneck -7.28088 3.88679 -0.61268
upperneck 15.9558 4.41985 6.21449
head 5.85775 2.58578 2.37405
rclavicle -9.34288e-015 3.02153e-014
rhumerus 173.314 10.6534 -176.97
rradius 12.6852
rwrist 123.99
rhand -15.7529 6.82301
rfingers 7.12502
rthumb 10.4385 -22.8979
lclavicle -9.34288e-015 3.02153e-014
lhumerus 15.0659 26.7367 15.7596
lradius 18.779
lwrist -39.7533
lhand 6.48868 33.8864
lfingers 7.12502
lthumb 31.7889 61.1344
rfemur -15.1844 21.073 8.2918
rtibia 33.414
rfoot -74.8905 0.158417
rtoes 58.8389
lfemur -68.9724 11.3491 -39.3511
ltibia 61.7557
lfoot -34.5014 11.7674
ltoes -21.3386
